<?xml version="1.0" encoding="UTF-8" standalone="no"?>
<!-- Created with Sodipodi ("http://www.sodipodi.com/") -->
<svg
   xmlns:dc="http://purl.org/dc/elements/1.1/"
   xmlns:cc="http://web.resource.org/cc/"
   xmlns:rdf="http://www.w3.org/1999/02/22-rdf-syntax-ns#"
   xmlns:svg="http://www.w3.org/2000/svg"
   xmlns="http://www.w3.org/2000/svg"
   xmlns:sodipodi="http://sodipodi.sourceforge.net/DTD/sodipodi-0.dtd"
   xmlns:inkscape="http://www.inkscape.org/namespaces/inkscape"
   xml:space="preserve"
   width="110mm"
   height="216mm"
   style="shape-rendering:geometricPrecision; text-rendering:geometricPrecision; image-rendering:optimizeQuality; fill-rule:evenodd"
   viewBox="0 0 8268 11692"
   id="svg2"
   sodipodi:version="0.32"
   inkscape:version="0.45pre1"
   sodipodi:docname="Treble_clef_1.svg"
   inkscape:output_extension="org.inkscape.output.svg.inkscape"
   sodipodi:docbase="G:\Temp"
   sodipodi:modified="true"><metadata
     id="metadata22"><rdf:RDF><cc:Work
         rdf:about=""><dc:format>image/svg+xml</dc:format><dc:type
           rdf:resource="http://purl.org/dc/dcmitype/StillImage" /></cc:Work></rdf:RDF></metadata><sodipodi:namedview
     inkscape:window-height="808"
     inkscape:window-width="1152"
     inkscape:pageshadow="2"
     inkscape:pageopacity="0.0"
     borderopacity="1.0"
     bordercolor="#666666"
     pagecolor="#ffffff"
     id="base"
     inkscape:zoom="0.35539137"
     inkscape:cx="372.04742"
     inkscape:cy="188.52456"
     inkscape:window-x="-4"
     inkscape:window-y="-4"
     inkscape:current-layer="svg2" /><defs
     id="defs4"><style
       type="text/css"
       id="style6">
   
    .str0 {stroke:#131516;stroke-width:3}
    .str1 {stroke:#131516;stroke-width:42}
    .fil1 {fill:none}
    .fil0 {fill:#131516}
   
  </style></defs><g
     id="g2226"
     transform="translate(0,-2290.9878)"><path
       class="fil0 str0"
       d="M 4261.8807,8936.6881 C 4029.0224,9001.4257 3819.0682,9146.1332 3624.3834,9367.0025 C 3429.6986,9591.6799 3334.2649,9839.2059 3334.2649,10105.773 C 3334.2649,10273.33 3391.5251,10463.736 3502.2282,10665.566 C 3612.9314,10871.205 3780.8947,11019.722 3998.4836,11114.924 C 4071.0132,11130.157 4105.3694,11168.238 4105.3694,11221.552 C 4105.3694,11240.592 4078.6479,11259.633 4013.753,11274.866 C 3666.3743,11187.279 3380.0731,11000.681 3158.6668,10722.688 C 2937.2606,10440.887 2822.7401,10121.005 2815.1054,9755.4279 C 2826.5575,9363.1944 2944.8953,8997.6176 3170.1189,8662.5055 C 3399.1598,8323.5853 3693.0957,8083.6755 4051.9265,7942.7761 L 3788.5294,6590.9034 C 3200.6577,7078.3392 2723.4891,7584.8154 2353.2062,8117.9483 C 1982.9233,8647.2731 1792.0559,9222.295 1776.7865,9843.014 C 1784.4212,10121.005 1841.6814,10391.382 1948.5672,10650.334 C 2055.453,10913.094 2215.7816,11149.198 2429.5532,11366.26 C 2860.9136,11796.578 3422.0639,12021.257 4105.3694,12044.106 C 4338.2277,12028.873 4586.3554,11986.984 4853.5698,11918.438 L 4261.8807,8936.6881 z M 4536.7298,8898.6072 L 5132.2363,11827.043 C 5720.108,11590.939 6014.0439,11076.843 6014.0439,10292.371 C 5979.6877,10029.61 5903.3408,9793.5088 5773.5509,9584.0637 C 5647.5784,9370.8106 5479.615,9203.2545 5265.8435,9081.3956 C 5052.0719,8959.5366 4811.579,8898.6072 4536.7298,8898.6072 z M 3754.1733,4938.1915 C 3880.1458,4862.0297 4025.2051,4728.7464 4181.7164,4542.1499 C 4338.2277,4359.3615 4490.9216,4142.3003 4635.9809,3898.5824 C 4784.8575,3651.0564 4903.1953,3399.7223 4990.9944,3144.5802 C 5078.7934,2893.2461 5120.7842,2653.3363 5120.7842,2432.467 C 5120.7842,2337.2646 5113.1495,2242.0623 5094.0628,2158.2843 C 5078.7934,2021.193 5036.8025,1914.5664 4964.2729,1842.2127 C 4891.7433,1773.667 4800.1269,1735.5861 4685.6064,1735.5861 C 4456.5655,1735.5861 4250.4287,1876.4855 4067.1959,2158.2843 C 3925.954,2402.0022 3807.6162,2691.4172 3723.6345,3018.9131 C 3635.8355,3350.2171 3586.2099,3677.713 3578.5752,4009.017 C 3597.662,4386.0182 3658.7396,4694.4736 3754.1733,4938.1915 z M 3513.6803,5159.0608 C 3341.8996,4542.1499 3246.4659,3913.8147 3227.3791,3274.0553 C 3231.1965,2862.7813 3273.1873,2478.1641 3353.3516,2120.2034 C 3429.6986,1762.2427 3540.4017,1453.7873 3685.461,1187.2209 C 3826.7029,920.65437 3990.8489,718.82557 4174.0817,581.73417 C 4338.2277,459.87527 4456.5655,395.13767 4521.4604,395.13767 C 4571.086,395.13767 4613.0768,414.17817 4651.2503,448.45098 C 4689.4238,482.72388 4739.0493,539.84517 4800.1269,616.00708 C 5254.3914,1259.5746 5483.4324,2036.4254 5483.4324,2942.7513 C 5483.4324,3373.0657 5426.1721,3791.9558 5311.6517,4210.8459 C 5200.9486,4625.9279 5036.8025,5021.9695 4819.2137,5391.3544 C 4597.8074,5764.5475 4338.2277,6088.2353 4036.6571,6366.226 L 4345.8624,7866.6142 C 4513.8257,7847.5738 4628.3462,7832.3414 4693.2411,7832.3414 C 4983.3597,7832.3414 5242.9394,7893.2709 5483.4324,8015.1298 C 5723.9254,8136.9888 5930.0622,8300.7367 6098.0256,8510.1818 C 6265.9889,8715.8188 6395.7788,8951.9205 6487.3952,9218.4869 C 6575.1942,9485.0533 6624.8197,9763.0441 6624.8197,10052.459 C 6624.8197,10501.817 6506.4819,10913.094 6269.8063,11282.482 C 6033.1306,11651.869 5678.1172,11922.246 5200.9486,12097.419 C 5231.4873,12284.017 5284.9302,12554.392 5365.0946,12900.928 C 5441.4415,13251.273 5498.7018,13529.263 5536.8753,13734.9 C 5575.0488,13940.537 5590.3182,14138.558 5590.3182,14332.771 C 5590.3182,14633.61 5517.7885,14900.176 5372.7293,15136.278 C 5223.8526,15372.38 5025.3505,15555.168 4773.4055,15684.643 C 4525.2778,15814.118 4250.4287,15878.856 3952.6754,15878.856 C 3532.767,15878.856 3166.3015,15760.805 2853.2789,15528.512 C 2540.2563,15292.41 2372.2929,14976.338 2357.0235,14572.68 C 2368.4756,14393.7 2410.4664,14226.144 2486.8134,14066.204 C 2563.1604,13906.264 2666.2288,13776.789 2799.836,13677.779 C 2929.6259,13574.96 3086.1372,13521.647 3265.5526,13510.223 C 3414.4292,13510.223 3555.6711,13552.112 3689.2783,13632.082 C 3819.0682,13715.86 3925.954,13826.294 4006.1183,13967.194 C 4082.4653,14108.093 4124.4561,14264.225 4124.4561,14431.781 C 4124.4561,14656.458 4048.1092,14846.863 3895.4152,15002.995 C 3742.7212,15159.127 3548.0364,15239.097 3315.1781,15239.097 L 3227.3791,15239.097 C 3376.2557,15467.582 3620.5661,15585.633 3960.3101,15585.633 C 4132.0908,15585.633 4307.6889,15547.552 4483.2869,15479.006 C 4662.7023,15406.653 4811.579,15311.45 4937.5515,15189.591 C 5063.524,15067.732 5147.5057,14938.257 5181.8618,14801.166 C 5246.7567,14645.034 5277.2955,14427.973 5277.2955,14157.598 C 5277.2955,13974.81 5258.2088,13792.022 5223.8526,13609.233 C 5189.4965,13430.253 5136.0536,13190.343 5063.524,12893.312 C 4990.9944,12600.089 4937.5515,12371.603 4907.0127,12215.471 C 4677.9717,12272.593 4441.2961,12303.058 4193.1684,12303.058 C 3777.0774,12303.058 3383.8904,12219.279 3013.6076,12047.914 C 2643.3247,11876.548 2318.8501,11640.445 2036.3662,11335.795 C 1757.6998,11031.146 1540.1109,10688.415 1383.5996,10299.987 C 1230.9056,9915.3677 1150.7413,9511.71 1146.9239,9092.8199 C 1162.1933,8704.3945 1234.7229,8331.2015 1372.1475,7980.857 C 1509.5721,7626.7044 1685.1701,7291.5923 1902.759,6979.3288 C 2120.3479,6667.0653 2345.5715,6381.4584 2578.4298,6126.3162 C 2815.1054,5874.9821 3124.3107,5551.2943 3513.6803,5159.0608 z "
       id="path9"
       style="fill:#131516;stroke:#131516;stroke-width:11.43815327" /><path
       class="fil1 str1"
       d="M 375.81942,5533.7374 L 7892.1796,5533.7374"
       id="path11"
       style="fill:none;stroke:#131516;stroke-width:160.13414001" /><path
       class="fil1 str1"
       d="M 375.81942,10031.094 L 7892.1796,10031.094"
       id="path13"
       style="fill:none;stroke:#131516;stroke-width:160.13414001" /><path
       class="fil1 str1"
       d="M 375.81942,7780.5117 L 7892.1796,7780.5117"
       id="path15"
       style="fill:none;stroke:#131516;stroke-width:160.13414001" /><path
       class="fil1 str1"
       d="M 375.81942,3283.1551 L 7892.1796,3283.1551"
       id="path17"
       style="fill:none;stroke:#131516;stroke-width:160.13414001" /><path
       class="fil1 str1"
       d="M 375.81942,1036.3808 L 7892.1796,1036.3808"
       id="path19"
       style="fill:none;stroke:#131516;stroke-width:160.13414001" /></g></svg>